# xmcd
#
# Track frame offsets:
#	187
#	12642
#	24330
#	35932
#	52180
#	66992
#	82257
#	101115
#	118610
#	135085
#	150870
#	170575
#
# Disc length: 2619 seconds
#
# Revision: 0
# Processed by: cddbd v1.4b42PL1 Copyright (c) Steve Scherf et al.
# Submitted via: audiograbber 1.80
#
DISCID=a20a390c
DTITLE=Solomon Burke - Best of Solomon Burke
DYEAR=1900
DGENRE=
TTITLE0=Just Out of Reach
TTITLE1=Cry to Me
TTITLE2=If you Need Me
TTITLE3=I Have a Dream
TTITLE4=Looking for a Sign
TTITLE5=I Ain't Gonna Give Up
TTITLE6=Now Is the Time
TTITLE7=We Can Be Together Again
TTITLE8=Ring, Ring, Ring
TTITLE9=Social Change
TTITLE10=Mountain Top
TTITLE11=Precious Lord/We Shall Overcome
EXTD=
EXTT0=
EXTT1=
EXTT2=
EXTT3=
EXTT4=
EXTT5=
EXTT6=
EXTT7=
EXTT8=
EXTT9=
EXTT10=
EXTT11=
PLAYORDER=
